<svg width="22" height="22" fill="none" xmlns="http://www.w3.org/2000/svg"><path d="M14.725 7.623a.172.172 0 00-.172-.172l-1.418.006L11 10.003 8.866 7.46l-1.42-.006a.171.171 0 00-.172.172c0 .04.015.08.041.112l2.795 3.33-2.795 3.328a.172.172 0 00.131.284l1.42-.007L11 12.126l2.133 2.543 1.418.007a.171.171 0 00.172-.172c0-.04-.015-.08-.04-.112l-2.792-3.328 2.796-3.33a.172.172 0 00.038-.111z" fill="#fff"/><path d="M11 1.396c-5.315 0-9.625 4.31-9.625 9.625 0 5.316 4.31 9.625 9.625 9.625s9.625-4.31 9.625-9.625S16.315 1.396 11 1.396zm0 17.618a7.994 7.994 0 01-7.992-7.992A7.994 7.994 0 0111 3.028a7.994 7.994 0 017.992 7.992A7.994 7.994 0 0111 19.014z" fill="#fff"/></svg>