<svg width="30" height="30" fill="none" xmlns="http://www.w3.org/2000/svg"><path d="M23.75 23.75v-20A1.25 1.25 0 0022.5 2.5h-15a1.25 1.25 0 00-1.25 1.25v20m9.375-15h-1.25m1.25 5h-1.25" stroke="#000" stroke-width="4" stroke-linecap="round" stroke-linejoin="round"/><path d="M6.25 23.75A3.75 3.75 0 0110 20h10a3.75 3.75 0 010 7.5H10a3.75 3.75 0 01-3.75-3.75zm4.375.625V27.5m3.125-3.125V27.5m3.125-3.125V27.5" stroke="#000" stroke-width="4" stroke-linecap="round" stroke-linejoin="round"/><path d="M20 25a1.25 1.25 0 100-2.5 1.25 1.25 0 000 2.5z" fill="#000"/><path d="M18.125 27.5h-8.75" stroke="#000" stroke-width="4" stroke-linecap="round" stroke-linejoin="round"/></svg>