<svg width="1023" height="252" fill="none" xmlns="http://www.w3.org/2000/svg"><path fill="#000641" d="M739 0h35v35h-35z"/><path d="M14.4 49.4V251h100.8c27.648 0 52.704-11.232 70.848-29.664 2.016-2.016 4.032-4.032 5.76-6.048 14.976-17.568 23.904-40.32 23.904-65.088 0-55.584-45.216-100.512-100.8-100.512L14.4 49.4zm35.712 36.288h64.8c35.712 0 64.8 29.088 64.8 64.8 0 35.712-29.088 64.8-64.8 64.8h-64.8v-129.6zm249.064-.288h147.168v-36H299.176c-29.952 0-54.144 24.48-54.144 54.432v92.736c0 29.952 24.192 54.432 54.144 54.432h147.168v-36H299.176c-10.08 0-18.432-8.352-18.432-18.432v-38.016h129.6v-36h-129.6v-18.72c0-10.08 8.352-18.432 18.432-18.432zm428.776-36h-37.44l-36.288 121.536-30.528-42.336-5.76-8.064-16.416-22.464-16.416 22.464-5.76 8.064-30.528 42.336L512.528 49.4h-37.44l46.944 158.112 12.96 43.2 26.496-36.576 39.744-55.008 40.032 55.008L667.76 251l12.96-43.488L727.952 49.4zM792.619 251V49.4h-36V251h36zm21.487.864l.576-.576h-.576v.576zm201.604-.576h-.29l.29.576v-.576zm0-201.6h-45.22L915.194 121.4l-55.296-71.712h-45.504l78.048 101.088-77.472 100.512h45.504l55.008-71.136 55.008 71.136h45.5l-77.756-100.512 78.046-101.088h-.57z" fill="#B4B72D"/></svg>