<svg width="30" height="30" fill="none" xmlns="http://www.w3.org/2000/svg"><path d="M17.5 11.25h-5a1.25 1.25 0 00-1.25 1.25v5a1.25 1.25 0 001.25 1.25h5a1.25 1.25 0 001.25-1.25v-5a1.25 1.25 0 00-1.25-1.25zm-1.25 5h-2.5v-2.5h2.5v2.5zm10 0a1.25 1.25 0 000-2.5h-2.5v-2.5h2.5a1.25 1.25 0 000-2.5h-2.725a3.75 3.75 0 00-2.275-2.275V3.75a1.25 1.25 0 00-2.5 0v2.5h-2.5v-2.5a1.25 1.25 0 00-2.5 0v2.5h-2.5v-2.5a1.25 1.25 0 00-2.5 0v2.725A3.75 3.75 0 006.475 8.75H3.75a1.25 1.25 0 000 2.5h2.5v2.5h-2.5a1.25 1.25 0 000 2.5h2.5v2.5h-2.5a1.25 1.25 0 000 2.5h2.725a3.75 3.75 0 002.275 2.275v2.725a1.25 1.25 0 002.5 0v-2.5h2.5v2.5a1.25 1.25 0 002.5 0v-2.5h2.5v2.5a1.25 1.25 0 002.5 0v-2.725a3.75 3.75 0 002.275-2.275h2.725a1.25 1.25 0 000-2.5h-2.5v-2.5h2.5zm-5 3.75A1.25 1.25 0 0120 21.25H10A1.25 1.25 0 018.75 20V10A1.25 1.25 0 0110 8.75h10A1.25 1.25 0 0121.25 10v10z" fill="#000"/></svg>