<svg width="30" height="30" fill="none" xmlns="http://www.w3.org/2000/svg"><path fill-rule="evenodd" clip-rule="evenodd" d="M26.247 7.464a.7.7 0 00-.269-.053l-22.134.09a.705.705 0 00-.7.706l.026 11.586a.71.71 0 00.704.707l1.796.01v1.246c0 .388.314.704.702.704h2.985s.74-1.803 2.768-1.803c2.027 0 2.787 1.803 2.787 1.803h8.676a.703.703 0 00.703-.704V20.8h1.686a.704.704 0 00.704-.704V8.112a.7.7 0 00-.434-.648zM4.991 9.444a.235.235 0 01.165-.069h5.157a.234.234 0 01.234.235l-.016 8.2s-.483.017-.898.292c-.415.274-.52.648-.52.648H4.921V9.609c0-.062.025-.122.069-.165zm7.265 0a.234.234 0 01.166-.069h5.156a.234.234 0 01.234.234l-.016 8.907a.236.236 0 01-.236.234h-2.366s-.566-.522-1.245-.758c-.679-.236-1.762-.287-1.762-.287V9.609c0-.062.025-.122.07-.166zm7.266 0a.235.235 0 01.166-.069h5.156a.235.235 0 01.234.234l-.017 8.907a.235.235 0 01-.234.234h-5.374V9.609c0-.062.025-.122.069-.165z" fill="#000"/></svg>