<svg width="30" height="30" fill="none" xmlns="http://www.w3.org/2000/svg"><path d="M26.667 5H3.333a1.667 1.667 0 00-1.666 1.667v16.666A1.666 1.666 0 003.333 25h23.334a1.667 1.667 0 001.666-1.667V6.667A1.667 1.667 0 0026.667 5zM4.342 6.667a1.042 1.042 0 11.066 2.082 1.042 1.042 0 01-.066-2.082zm0 16.666a1.042 1.042 0 110-2.084 1.042 1.042 0 010 2.084zm4.216-4.816A4.167 4.167 0 015.625 17.4l.717-.883a3.334 3.334 0 002.258.925c.833 0 1.292-.417 1.292-.909 0-.491-.492-.758-1.592-1.016-1.417-.334-2.408-.742-2.408-2.034 0-1.291 1.016-2.075 2.5-2.075a3.817 3.817 0 012.6.959l-.675.916a3.067 3.067 0 00-1.984-.783 1.042 1.042 0 00-1.158.9c0 .558.508.758 1.6 1.008 1.433.325 2.392.784 2.392 2.034 0 1.25-.967 2.075-2.609 2.075zm6.259 0a4.167 4.167 0 01-2.934-1.117l.717-.883a3.334 3.334 0 002.258.925c.834 0 1.292-.417 1.292-.909 0-.491-.492-.758-1.592-1.016-1.416-.334-2.408-.742-2.408-2.034 0-1.291 1.025-2.075 2.5-2.075a3.8 3.8 0 012.6.959l-.675.916a3.067 3.067 0 00-1.975-.833 1.042 1.042 0 00-1.158.9c0 .558.508.758 1.6 1.008 1.433.325 2.391.784 2.391 2.034 0 1.25-.975 2.125-2.616 2.125zm3.816-.117v-6.867h2.417c2.267 0 3.867 1.425 3.867 3.434 0 2.008-1.584 3.433-3.867 3.433h-2.417zm6.942 4.933a1.042 1.042 0 110-2.084 1.042 1.042 0 010 2.084zm0-14.583a1.042 1.042 0 110-2.083 1.042 1.042 0 010 2.083z" fill="#000"/><path d="M19.883 12.667h1.3a2.308 2.308 0 110 4.608h-1.3v-4.608z" fill="#000"/></svg>