<svg width="30" height="30" fill="none" xmlns="http://www.w3.org/2000/svg"><path d="M29.554 6.171a11.66 11.66 0 01-3.344.917 5.837 5.837 0 002.56-3.223 11.625 11.625 0 01-3.697 1.413 5.825 5.825 0 00-9.923 5.312A16.535 16.535 0 013.148 4.505a5.82 5.82 0 00-.788 2.928 5.825 5.825 0 002.59 4.847 5.81 5.81 0 01-2.637-.728v.075a5.825 5.825 0 004.67 5.71 5.866 5.866 0 01-2.63.1 5.826 5.826 0 005.44 4.042 11.685 11.685 0 01-7.232 2.494c-.464 0-.928-.027-1.39-.081a16.47 16.47 0 008.925 2.616c10.713 0 16.57-8.873 16.57-16.568 0-.25-.007-.502-.018-.752a11.837 11.837 0 002.903-3.013l.003-.004z" fill="#fff"/></svg>